name C:\Users\u0150099\Documents\master_thesis\3dpredictsim\Results\debug\Fal_s1_mtjc2_sc_cspx10_oy2_ATx70_Fpsl10_MTc2_MTPm_k1_d01_MTJm_nl_MG_exp5_table_d01_PF_Natali2010_x3_ls146_ig21_wAk2e+04_wa2e+03_wpMnD1e+03.mot
datacolumns 128
datarows 4
range 0.55006210 0.58306582
endheader
time	pelvis_tilt	pelvis_list	pelvis_rotation	pelvis_tx	pelvis_ty	pelvis_tz	hip_flexion_l	hip_adduction_l	hip_rotation_l	hip_flexion_r	hip_adduction_r	hip_rotation_r	knee_angle_l	knee_angle_r	ankle_angle_l	ankle_angle_r	subtalar_angle_l	subtalar_angle_r	mtj_angle_l	mtj_angle_r	mtp_angle_l	mtp_angle_r	lumbar_extension	lumbar_bending	lumbar_rotation	arm_flex_l	arm_add_l	arm_rot_l	arm_flex_r	arm_add_r	arm_rot_r	elbow_flex_l	elbow_flex_r	pro_sup_l	pro_sup_r	glut_med1_l/activation	glut_med2_l/activation	glut_med3_l/activation	glut_min1_l/activation	glut_min2_l/activation	glut_min3_l/activation	semimem_l/activation	semiten_l/activation	bifemlh_l/activation	bifemsh_l/activation	sar_l/activation	add_long_l/activation	add_brev_l/activation	add_mag1_l/activation	add_mag2_l/activation	add_mag3_l/activation	tfl_l/activation	pect_l/activation	grac_l/activation	glut_max1_l/activation	glut_max2_l/activation	glut_max3_l/activation	iliacus_l/activation	psoas_l/activation	quad_fem_l/activation	gem_l/activation	peri_l/activation	rect_fem_l/activation	vas_med_l/activation	vas_int_l/activation	vas_lat_l/activation	med_gas_l/activation	lat_gas_l/activation	soleus_l/activation	tib_post_l/activation	flex_dig_l/activation	flex_hal_l/activation	tib_ant_l/activation	per_brev_l/activation	per_long_l/activation	per_tert_l/activation	ext_dig_l/activation	ext_hal_l/activation	ercspn_l/activation	intobl_l/activation	extobl_l/activation	glut_med1_r/activation	glut_med2_r/activation	glut_med3_r/activation	glut_min1_r/activation	glut_min2_r/activation	glut_min3_r/activation	semimem_r/activation	semiten_r/activation	bifemlh_r/activation	bifemsh_r/activation	sar_r/activation	add_long_r/activation	add_brev_r/activation	add_mag1_r/activation	add_mag2_r/activation	add_mag3_r/activation	tfl_r/activation	pect_r/activation	grac_r/activation	glut_max1_r/activation	glut_max2_r/activation	glut_max3_r/activation	iliacus_r/activation	psoas_r/activation	quad_fem_r/activation	gem_r/activation	peri_r/activation	rect_fem_r/activation	vas_med_r/activation	vas_int_r/activation	vas_lat_r/activation	med_gas_r/activation	lat_gas_r/activation	soleus_r/activation	tib_post_r/activation	flex_dig_r/activation	flex_hal_r/activation	tib_ant_r/activation	per_brev_r/activation	per_long_r/activation	per_tert_r/activation	ext_dig_r/activation	ext_hal_r/activation	ercspn_r/activation	intobl_r/activation	extobl_r/activation	
          0.55006210	         -2.92166652	          1.80324297	         -5.58825557	          0.73158259	          0.90460943	          0.00642923	         28.14897624	          2.11591924	         -4.29474310	        -18.23400428	          1.00188762	         10.60128304	         -6.26921947	         -7.76423547	          2.86064117	          6.54509252	         -0.48350492	          0.01860808	          2.61079606	         -0.48258196	         -6.97361449	         15.07068388	         -3.46038732	         -0.59497432	          2.51677618	         -2.28062143	        -13.44970758	         10.43236821	          2.52099406	        -13.89723455	         19.37267616	         14.20645754	         47.19387903	         86.51662706	         86.51662706	          0.05000214	          0.05000086	          0.05000767	          0.05000065	          0.05000091	          0.05000208	          0.26464376	          0.07078145	          0.27614607	          0.07807138	          0.05001111	          0.16304292	          0.15343987	          0.12039838	          0.11019772	          0.10094399	          0.05001733	          0.05372767	          0.14250559	          0.05001001	          0.05002286	          0.07338271	          0.05534657	          0.05917816	          0.15405550	          0.05000211	          0.05000068	          0.05000073	          0.05000578	          0.05000546	          0.05000456	          0.07836502	          0.05000049	          0.05000009	          0.05000039	          0.07095882	          0.05000266	          0.27498691	          0.05000568	          0.10998555	          0.31084291	          0.57035006	          0.31036729	          0.07001560	          0.09801704	          0.08285297	          0.41585562	          0.08284931	          0.05000535	          0.60020043	          0.22519755	          0.09656134	          0.05000315	          0.05000045	          0.05000035	          0.09606894	          0.11601739	          0.05000021	          0.05000027	          0.05000048	          0.05000156	          0.05000100	          0.61329768	          0.05000154	          0.05000088	          0.05000721	          0.05000293	          0.05000164	          0.42778800	          0.68818497	          0.05000025	          0.05000134	          0.05000034	          0.31465661	          0.05000148	          0.05000149	          0.05000131	          0.47093508	          0.53072422	          0.35123116	          0.42211803	          0.31238448	          0.43894851	          0.05000007	          0.08285489	          0.23258562	          0.05000034	          0.05000070	          0.09804777	          0.05000012	          0.05000004	          0.05000008	
          0.56106334	         -2.92773597	          1.88334643	         -5.93979609	          0.74893547	          0.90393943	          0.00641598	         27.82752584	          2.46075888	         -4.16480130	        -18.36973751	          0.68136839	         10.36195507	         -6.59592174	         -9.26105157	          2.50309428	          5.83573079	         -0.47730694	          0.72233809	          2.70813073	         -1.64740016	         -7.08396912	         18.07829749	         -3.25465942	         -0.76059197	          2.65473930	         -3.09590638	        -13.45870481	         10.27026951	          1.97082645	        -13.84952041	         19.28758488	         13.45377401	         49.35757371	         86.51662706	         86.51662706	          0.05916707	          0.05916726	          0.05000052	          0.05916781	          0.05916769	          0.05018134	          0.22751216	          0.05981527	          0.23780236	          0.06597667	          0.05000131	          0.15252221	          0.15814231	          0.10174579	          0.10743024	          0.12241632	          0.05000058	          0.05028599	          0.15747264	          0.05000133	          0.05000182	          0.12709867	          0.05915394	          0.05001310	          0.34212823	          0.16444120	          0.07345093	          0.05000011	          0.05000030	          0.05000028	          0.05000029	          0.08011967	          0.05018528	          0.05000007	          0.05001431	          0.08285370	          0.08285314	          0.28421423	          0.06590710	          0.12952449	          0.29244442	          0.59483787	          0.34314859	          0.05916712	          0.08282988	          0.07001624	          0.35142142	          0.07001233	          0.05000007	          0.50720308	          0.19030459	          0.08159978	          0.05000725	          0.05000072	          0.05000046	          0.08118365	          0.09804150	          0.07291367	          0.05000198	          0.05000128	          0.05000357	          0.05000607	          0.55294622	          0.05001059	          0.05000077	          0.05000237	          0.05000151	          0.05000131	          0.36150487	          0.67641743	          0.05000012	          0.05000058	          0.05000021	          0.28152732	          0.10105563	          0.10379502	          0.08690743	          0.40692212	          0.46311029	          0.31107130	          0.39419562	          0.35476762	          0.44571086	          0.05000003	          0.07001717	          0.19654786	          0.05000032	          0.05000011	          0.08285592	          0.05000009	          0.05000018	          0.05000033	
          0.57206458	         -2.93016789	          1.98164278	         -6.26988071	          0.76665470	          0.90342021	          0.00636734	         27.51868484	          2.77184556	         -4.01995308	        -18.42611581	          0.31590979	         10.03257735	         -7.59232187	        -10.84285619	          1.65855925	          4.89505135	         -0.44188697	          1.54066641	          2.73522394	         -2.93990642	         -7.16417810	         21.34356496	         -3.02233001	         -0.94579605	          2.78072940	         -3.98590841	        -13.48308884	         10.31004891	          1.33604810	        -13.79906976	         19.16781677	         12.84143124	         51.50998338	         86.51662706	         86.51662706	          0.05000007	          0.05000020	          0.10023180	          0.05000024	          0.05000026	          0.05000031	          0.19226047	          0.05054735	          0.20095627	          0.05575405	          0.06955106	          0.13144485	          0.24362630	          0.26850629	          0.18187144	          0.16325623	          0.05000177	          0.07002885	          0.13307409	          0.05628076	          0.11162768	          0.17265601	          0.05000350	          0.07001583	          0.49188498	          0.13896227	          0.06207034	          0.05916786	          0.05916790	          0.05916789	          0.05916785	          0.07001588	          0.07001607	          0.05971151	          0.05000014	          0.07001634	          0.07001622	          0.34978124	          0.12200135	          0.12509944	          0.43538936	          0.62755429	          0.28998038	          0.05000002	          0.06999588	          0.05916781	          0.29697079	          0.05916446	          0.05000058	          0.42861504	          0.16081811	          0.06895650	          0.05001205	          0.05000192	          0.05000245	          0.06860477	          0.08285092	          0.16831256	          0.05916856	          0.05916815	          0.05916795	          0.05916869	          0.59690771	          0.05917989	          0.05000826	          0.05000939	          0.05000947	          0.05915236	          0.30549186	          0.65555232	          0.05000245	          0.05001080	          0.05000132	          0.31531907	          0.13729580	          0.13729593	          0.13729510	          0.34387186	          0.39135409	          0.26287256	          0.33311909	          0.33478526	          0.37665712	          0.05000004	          0.05916847	          0.16609391	          0.05000015	          0.05000008	          0.07001797	          0.05000040	          0.06013099	          0.05698838	
          0.58306582	         -2.92972288	          2.13167402	         -6.58188488	          0.78466017	          0.90308052	          0.00631440	         27.16325496	          3.02592916	         -3.78843677	        -18.39542197	         -0.12299983	          9.62647361	         -8.85702315	        -12.48592798	          0.62966914	          3.65722242	         -0.35976138	          2.40379168	          2.88108760	         -4.33387225	         -7.20499610	         24.85986233	         -2.76635126	         -1.18749115	          2.89608702	         -4.93150767	        -13.52702338	         10.50763450	          0.63440694	        -13.73846552	         19.03568267	         12.35477229	         53.63047572	         86.51662706	         86.51662706	          0.30135781	          0.29687922	          0.31876598	          0.25563494	          0.18080650	          0.17010275	          0.16247083	          0.10975113	          0.16981931	          0.07667240	          0.05916811	          0.11107842	          0.20587805	          0.22690306	          0.15369202	          0.20600771	          0.05000155	          0.05918127	          0.14900233	          0.19676825	          0.19493431	          0.21303859	          0.05916750	          0.05916759	          0.41567031	          0.11743116	          0.07860003	          0.05000018	          0.05000030	          0.05000028	          0.05000025	          0.05916733	          0.05916751	          0.05045956	          0.05916822	          0.05916778	          0.05916771	          0.41583017	          0.10309802	          0.11781280	          0.36792844	          0.76831289	          0.59039281	          0.05000158	          0.09358328	          0.05000019	          0.25095729	          0.05000032	          0.05000010	          0.36239777	          0.13590049	          0.05827227	          0.05000336	          0.05000031	          0.05000023	          0.05797504	          0.07001795	          0.22899127	          0.05000094	          0.05000070	          0.05000145	          0.05000134	          0.59985066	          0.05001267	          0.05000057	          0.05000262	          0.05000130	          0.05000077	          0.27073919	          0.66447052	          0.05000011	          0.05000052	          0.05000014	          0.26646237	          0.11602278	          0.11602287	          0.11602217	          0.29059086	          0.33071603	          0.22214195	          0.28150422	          0.28291291	          0.31829668	          0.05000003	          0.05000082	          0.14035864	          0.05000017	          0.05000010	          0.05916917	          0.07102288	          0.05081404	          0.05000019	
